<svg width="24" height="25" viewBox="0 0 24 25" fill="none" xmlns="http://www.w3.org/2000/svg">
<path d="M3.99989 4.5L19.9999 20.5M16.4999 17.2559C15.1473 17.9845 13.6185 18.4999 11.9999 18.4999C8.46924 18.4999 5.36624 16.0478 3.5868 14.2788C3.1171 13.8119 2.88229 13.5784 2.7328 13.1201C2.62619 12.7933 2.62616 12.2066 2.7328 11.8797C2.88233 11.4215 3.11763 11.1875 3.58827 10.7197C4.48515 9.82821 5.71801 8.76359 7.17219 7.92676M19.4999 15.1335C19.8329 14.8405 20.138 14.5523 20.4117 14.2803L20.4146 14.2772C20.8832 13.8114 21.1182 13.5779 21.2674 13.1206C21.374 12.7938 21.3738 12.2068 21.2672 11.88C21.1178 11.4219 20.8827 11.1877 20.4133 10.7211C18.6338 8.95208 15.5305 6.5 11.9999 6.5C11.6624 6.5 11.3288 6.52241 10.9999 6.56448M13.3228 14C12.9702 14.3112 12.5071 14.5 11.9999 14.5C10.8953 14.5 9.99989 13.6046 9.99989 12.5C9.99989 11.9605 10.2135 11.4711 10.5608 11.1113" stroke="#CCCCCC" stroke-width="1.5" stroke-linecap="round" stroke-linejoin="round"/>
</svg>
