<svg width="24" height="25" viewBox="0 0 24 25" fill="none" xmlns="http://www.w3.org/2000/svg">
<path d="M3.5868 14.2788C5.36623 16.0478 8.46953 18.4999 12.0002 18.4999C15.5308 18.4999 18.6335 16.0478 20.413 14.2788C20.8823 13.8123 21.1177 13.5782 21.2671 13.1201C21.3738 12.7933 21.3738 12.2067 21.2671 11.8799C21.1177 11.4218 20.8823 11.1877 20.413 10.7211C18.6335 8.95208 15.5308 6.5 12.0002 6.5C8.46953 6.5 5.36623 8.95208 3.5868 10.7211C3.11714 11.188 2.88229 11.4216 2.7328 11.8799C2.62618 12.2067 2.62618 12.7933 2.7328 13.1201C2.88229 13.5784 3.11714 13.8119 3.5868 14.2788Z" stroke="#656565" stroke-width="1.5" stroke-linecap="round" stroke-linejoin="round"/>
<path d="M10 12.5C10 13.6046 10.8954 14.5 12 14.5C13.1046 14.5 14 13.6046 14 12.5C14 11.3954 13.1046 10.5 12 10.5C10.8954 10.5 10 11.3954 10 12.5Z" stroke="#656565" stroke-width="1.5" stroke-linecap="round" stroke-linejoin="round"/>
</svg>
